<svg viewBox="0 0 192 192" shape-rendering="crispEdges" xmlns="http://www.w3.org/2000/svg">
	<defs>
		<pattern id="grass" viewBox="0 0 16 16" x="-4" y="0" width="16" height="16"
			patternUnits="userSpaceOnUse">
			<rect width="1" height="1" fill="#74b44a" x="0" y="0" />
			<rect width="1" height="1" fill="#76b64c" x="1" y="0" />
			<rect width="1" height="1" fill="#73b349" x="2" y="0" />
			<rect width="1" height="1" fill="#66a63c" x="3" y="0" />
			<rect width="1" height="1" fill="#66a63c" x="4" y="0" />
			<rect width="1" height="1" fill="#6faf45" x="5" y="0" />
			<rect width="1" height="1" fill="#5f9f35" x="6" y="0" />
			<rect width="1" height="1" fill="#6cac42" x="7" y="0" />
			<rect width="1" height="1" fill="#7ebe54" x="8" y="0" />
			<rect width="1" height="1" fill="#76b64c" x="9" y="0" />
			<rect width="1" height="1" fill="#6aaa40" x="10" y="0" />
			<rect width="1" height="1" fill="#67a73d" x="11" y="0" />
			<rect width="1" height="1" fill="#69a93f" x="12" y="0" />
			<rect width="1" height="1" fill="#61a137" x="13" y="0" />
			<rect width="1" height="1" fill="#509026" x="14" y="0" />
			<rect width="1" height="1" fill="#6dad43" x="15" y="0" />
			<rect width="1" height="1" fill="#75b54b" x="0" y="1" />
			<rect width="1" height="1" fill="#6cac42" x="1" y="1" />
			<rect width="1" height="1" fill="#8ab95a" x="2" y="1" />
			<rect width="1" height="1" fill="#81b051" x="3" y="1" />
			<rect width="1" height="1" fill="#83b253" x="4" y="1" />
			<rect width="1" height="1" fill="#593d29" x="5" y="1" />
			<rect width="1" height="1" fill="#68a83e" x="6" y="1" />
			<rect width="1" height="1" fill="#62a238" x="7" y="1" />
			<rect width="1" height="1" fill="#5f9f35" x="8" y="1" />
			<rect width="1" height="1" fill="#93c263" x="9" y="1" />
			<rect width="1" height="1" fill="#90bf60" x="10" y="1" />
			<rect width="1" height="1" fill="#73b349" x="11" y="1" />
			<rect width="1" height="1" fill="#61a137" x="12" y="1" />
			<rect width="1" height="1" fill="#6cac42" x="13" y="1" />
			<rect width="1" height="1" fill="#67a73d" x="14" y="1" />
			<rect width="1" height="1" fill="#6bab41" x="15" y="1" />
			<rect width="1" height="1" fill="#8dbc5d" x="0" y="2" />
			<rect width="1" height="1" fill="#593d29" x="1" y="2" />
			<rect width="1" height="1" fill="#9ccb6c" x="2" y="2" />
			<rect width="1" height="1" fill="#64a43a" x="3" y="2" />
			<rect width="1" height="1" fill="#69a93f" x="4" y="2" />
			<rect width="1" height="1" fill="#593d29" x="5" y="2" />
			<rect width="1" height="1" fill="#70b046" x="6" y="2" />
			<rect width="1" height="1" fill="#593d29" x="7" y="2" />
			<rect width="1" height="1" fill="#74b44a" x="8" y="2" />
			<rect width="1" height="1" fill="#7fbf55" x="9" y="2" />
			<rect width="1" height="1" fill="#92c162" x="10" y="2" />
			<rect width="1" height="1" fill="#97c667" x="11" y="2" />
			<rect width="1" height="1" fill="#593d29" x="12" y="2" />
			<rect width="1" height="1" fill="#57972d" x="13" y="2" />
			<rect width="1" height="1" fill="#60a036" x="14" y="2" />
			<rect width="1" height="1" fill="#593d29" x="15" y="2" />
			<rect width="1" height="1" fill="#593d29" x="0" y="3" />
			<rect width="1" height="1" fill="#6c6c6c" x="1" y="3" />
			<rect width="1" height="1" fill="#593d29" x="2" y="3" />
			<rect width="1" height="1" fill="#593d29" x="3" y="3" />
			<rect width="1" height="1" fill="#71b147" x="4" y="3" />
			<rect width="1" height="1" fill="#593d29" x="5" y="3" />
			<rect width="1" height="1" fill="#593d29" x="6" y="3" />
			<rect width="1" height="1" fill="#593d29" x="7" y="3" />
			<rect width="1" height="1" fill="#5f9f35" x="8" y="3" />
			<rect width="1" height="1" fill="#593d29" x="9" y="3" />
			<rect width="1" height="1" fill="#6dad43" x="10" y="3" />
			<rect width="1" height="1" fill="#593d29" x="11" y="3" />
			<rect width="1" height="1" fill="#79553a" x="12" y="3" />
			<rect width="1" height="1" fill="#593d29" x="13" y="3" />
			<rect width="1" height="1" fill="#593d29" x="14" y="3" />
			<rect width="1" height="1" fill="#79553a" x="15" y="3" />
			<rect width="1" height="1" fill="#966c4a" x="0" y="4" />
			<rect width="1" height="1" fill="#79553a" x="1" y="4" />
			<rect width="1" height="1" fill="#966c4a" x="2" y="4" />
			<rect width="1" height="1" fill="#b9855c" x="3" y="4" />
			<rect width="1" height="1" fill="#593d29" x="4" y="4" />
			<rect width="1" height="1" fill="#966c4a" x="5" y="4" />
			<rect width="1" height="1" fill="#79553a" x="6" y="4" />
			<rect width="1" height="1" fill="#79553a" x="7" y="4" />
			<rect width="1" height="1" fill="#593d29" x="8" y="4" />
			<rect width="1" height="1" fill="#593d29" x="9" y="4" />
			<rect width="1" height="1" fill="#593d29" x="10" y="4" />
			<rect width="1" height="1" fill="#6c6c6c" x="11" y="4" />
			<rect width="1" height="1" fill="#79553a" x="12" y="4" />
			<rect width="1" height="1" fill="#966c4a" x="13" y="4" />
			<rect width="1" height="1" fill="#593d29" x="14" y="4" />
			<rect width="1" height="1" fill="#79553a" x="15" y="4" />
			<rect width="1" height="1" fill="#79553a" x="0" y="5" />
			<rect width="1" height="1" fill="#593d29" x="1" y="5" />
			<rect width="1" height="1" fill="#966c4a" x="2" y="5" />
			<rect width="1" height="1" fill="#966c4a" x="3" y="5" />
			<rect width="1" height="1" fill="#79553a" x="4" y="5" />
			<rect width="1" height="1" fill="#966c4a" x="5" y="5" />
			<rect width="1" height="1" fill="#593d29" x="6" y="5" />
			<rect width="1" height="1" fill="#593d29" x="7" y="5" />
			<rect width="1" height="1" fill="#593d29" x="8" y="5" />
			<rect width="1" height="1" fill="#79553a" x="9" y="5" />
			<rect width="1" height="1" fill="#79553a" x="10" y="5" />
			<rect width="1" height="1" fill="#593d29" x="11" y="5" />
			<rect width="1" height="1" fill="#79553a" x="12" y="5" />
			<rect width="1" height="1" fill="#79553a" x="13" y="5" />
			<rect width="1" height="1" fill="#79553a" x="14" y="5" />
			<rect width="1" height="1" fill="#b9855c" x="15" y="5" />
			<rect width="1" height="1" fill="#b9855c" x="0" y="6" />
			<rect width="1" height="1" fill="#79553a" x="1" y="6" />
			<rect width="1" height="1" fill="#79553a" x="2" y="6" />
			<rect width="1" height="1" fill="#79553a" x="3" y="6" />
			<rect width="1" height="1" fill="#878787" x="4" y="6" />
			<rect width="1" height="1" fill="#79553a" x="5" y="6" />
			<rect width="1" height="1" fill="#79553a" x="6" y="6" />
			<rect width="1" height="1" fill="#b9855c" x="7" y="6" />
			<rect width="1" height="1" fill="#b9855c" x="8" y="6" />
			<rect width="1" height="1" fill="#79553a" x="9" y="6" />
			<rect width="1" height="1" fill="#b9855c" x="10" y="6" />
			<rect width="1" height="1" fill="#b9855c" x="11" y="6" />
			<rect width="1" height="1" fill="#79553a" x="12" y="6" />
			<rect width="1" height="1" fill="#966c4a" x="13" y="6" />
			<rect width="1" height="1" fill="#79553a" x="14" y="6" />
			<rect width="1" height="1" fill="#966c4a" x="15" y="6" />
			<rect width="1" height="1" fill="#79553a" x="0" y="7" />
			<rect width="1" height="1" fill="#79553a" x="1" y="7" />
			<rect width="1" height="1" fill="#b9855c" x="2" y="7" />
			<rect width="1" height="1" fill="#b9855c" x="3" y="7" />
			<rect width="1" height="1" fill="#966c4a" x="4" y="7" />
			<rect width="1" height="1" fill="#966c4a" x="5" y="7" />
			<rect width="1" height="1" fill="#79553a" x="6" y="7" />
			<rect width="1" height="1" fill="#79553a" x="7" y="7" />
			<rect width="1" height="1" fill="#966c4a" x="8" y="7" />
			<rect width="1" height="1" fill="#593d29" x="9" y="7" />
			<rect width="1" height="1" fill="#966c4a" x="10" y="7" />
			<rect width="1" height="1" fill="#966c4a" x="11" y="7" />
			<rect width="1" height="1" fill="#79553a" x="12" y="7" />
			<rect width="1" height="1" fill="#79553a" x="13" y="7" />
			<rect width="1" height="1" fill="#966c4a" x="14" y="7" />
			<rect width="1" height="1" fill="#966c4a" x="15" y="7" />
			<rect width="1" height="1" fill="#966c4a" x="0" y="8" />
			<rect width="1" height="1" fill="#79553a" x="1" y="8" />
			<rect width="1" height="1" fill="#79553a" x="2" y="8" />
			<rect width="1" height="1" fill="#966c4a" x="3" y="8" />
			<rect width="1" height="1" fill="#79553a" x="4" y="8" />
			<rect width="1" height="1" fill="#966c4a" x="5" y="8" />
			<rect width="1" height="1" fill="#79553a" x="6" y="8" />
			<rect width="1" height="1" fill="#593d29" x="7" y="8" />
			<rect width="1" height="1" fill="#79553a" x="8" y="8" />
			<rect width="1" height="1" fill="#966c4a" x="9" y="8" />
			<rect width="1" height="1" fill="#966c4a" x="10" y="8" />
			<rect width="1" height="1" fill="#79553a" x="11" y="8" />
			<rect width="1" height="1" fill="#79553a" x="12" y="8" />
			<rect width="1" height="1" fill="#79553a" x="13" y="8" />
			<rect width="1" height="1" fill="#593d29" x="14" y="8" />
			<rect width="1" height="1" fill="#79553a" x="15" y="8" />
			<rect width="1" height="1" fill="#79553a" x="0" y="9" />
			<rect width="1" height="1" fill="#966c4a" x="1" y="9" />
			<rect width="1" height="1" fill="#593d29" x="2" y="9" />
			<rect width="1" height="1" fill="#79553a" x="3" y="9" />
			<rect width="1" height="1" fill="#79553a" x="4" y="9" />
			<rect width="1" height="1" fill="#593d29" x="5" y="9" />
			<rect width="1" height="1" fill="#593d29" x="6" y="9" />
			<rect width="1" height="1" fill="#79553a" x="7" y="9" />
			<rect width="1" height="1" fill="#79553a" x="8" y="9" />
			<rect width="1" height="1" fill="#79553a" x="9" y="9" />
			<rect width="1" height="1" fill="#79553a" x="10" y="9" />
			<rect width="1" height="1" fill="#79553a" x="11" y="9" />
			<rect width="1" height="1" fill="#b9855c" x="12" y="9" />
			<rect width="1" height="1" fill="#b9855c" x="13" y="9" />
			<rect width="1" height="1" fill="#79553a" x="14" y="9" />
			<rect width="1" height="1" fill="#966c4a" x="15" y="9" />
			<rect width="1" height="1" fill="#79553a" x="0" y="10" />
			<rect width="1" height="1" fill="#966c4a" x="1" y="10" />
			<rect width="1" height="1" fill="#79553a" x="2" y="10" />
			<rect width="1" height="1" fill="#b9855c" x="3" y="10" />
			<rect width="1" height="1" fill="#b9855c" x="4" y="10" />
			<rect width="1" height="1" fill="#79553a" x="5" y="10" />
			<rect width="1" height="1" fill="#b9855c" x="6" y="10" />
			<rect width="1" height="1" fill="#966c4a" x="7" y="10" />
			<rect width="1" height="1" fill="#593d29" x="8" y="10" />
			<rect width="1" height="1" fill="#b9855c" x="9" y="10" />
			<rect width="1" height="1" fill="#b9855c" x="10" y="10" />
			<rect width="1" height="1" fill="#593d29" x="11" y="10" />
			<rect width="1" height="1" fill="#966c4a" x="12" y="10" />
			<rect width="1" height="1" fill="#966c4a" x="13" y="10" />
			<rect width="1" height="1" fill="#878787" x="14" y="10" />
			<rect width="1" height="1" fill="#79553a" x="15" y="10" />
			<rect width="1" height="1" fill="#966c4a" x="0" y="11" />
			<rect width="1" height="1" fill="#79553a" x="1" y="11" />
			<rect width="1" height="1" fill="#79553a" x="2" y="11" />
			<rect width="1" height="1" fill="#966c4a" x="3" y="11" />
			<rect width="1" height="1" fill="#966c4a" x="4" y="11" />
			<rect width="1" height="1" fill="#b9855c" x="5" y="11" />
			<rect width="1" height="1" fill="#79553a" x="6" y="11" />
			<rect width="1" height="1" fill="#966c4a" x="7" y="11" />
			<rect width="1" height="1" fill="#6c6c6c" x="8" y="11" />
			<rect width="1" height="1" fill="#966c4a" x="9" y="11" />
			<rect width="1" height="1" fill="#966c4a" x="10" y="11" />
			<rect width="1" height="1" fill="#79553a" x="11" y="11" />
			<rect width="1" height="1" fill="#593d29" x="12" y="11" />
			<rect width="1" height="1" fill="#966c4a" x="13" y="11" />
			<rect width="1" height="1" fill="#79553a" x="14" y="11" />
			<rect width="1" height="1" fill="#593d29" x="15" y="11" />
			<rect width="1" height="1" fill="#79553a" x="0" y="12" />
			<rect width="1" height="1" fill="#593d29" x="1" y="12" />
			<rect width="1" height="1" fill="#966c4a" x="2" y="12" />
			<rect width="1" height="1" fill="#79553a" x="3" y="12" />
			<rect width="1" height="1" fill="#966c4a" x="4" y="12" />
			<rect width="1" height="1" fill="#966c4a" x="5" y="12" />
			<rect width="1" height="1" fill="#b9855c" x="6" y="12" />
			<rect width="1" height="1" fill="#79553a" x="7" y="12" />
			<rect width="1" height="1" fill="#79553a" x="8" y="12" />
			<rect width="1" height="1" fill="#79553a" x="9" y="12" />
			<rect width="1" height="1" fill="#79553a" x="10" y="12" />
			<rect width="1" height="1" fill="#79553a" x="11" y="12" />
			<rect width="1" height="1" fill="#79553a" x="12" y="12" />
			<rect width="1" height="1" fill="#79553a" x="13" y="12" />
			<rect width="1" height="1" fill="#b9855c" x="14" y="12" />
			<rect width="1" height="1" fill="#b9855c" x="15" y="12" />
			<rect width="1" height="1" fill="#79553a" x="0" y="13" />
			<rect width="1" height="1" fill="#966c4a" x="1" y="13" />
			<rect width="1" height="1" fill="#79553a" x="2" y="13" />
			<rect width="1" height="1" fill="#79553a" x="3" y="13" />
			<rect width="1" height="1" fill="#745844" x="4" y="13" />
			<rect width="1" height="1" fill="#79553a" x="5" y="13" />
			<rect width="1" height="1" fill="#966c4a" x="6" y="13" />
			<rect width="1" height="1" fill="#966c4a" x="7" y="13" />
			<rect width="1" height="1" fill="#79553a" x="8" y="13" />
			<rect width="1" height="1" fill="#593d29" x="9" y="13" />
			<rect width="1" height="1" fill="#b9855c" x="10" y="13" />
			<rect width="1" height="1" fill="#593d29" x="11" y="13" />
			<rect width="1" height="1" fill="#79553a" x="12" y="13" />
			<rect width="1" height="1" fill="#b9855c" x="13" y="13" />
			<rect width="1" height="1" fill="#966c4a" x="14" y="13" />
			<rect width="1" height="1" fill="#966c4a" x="15" y="13" />
			<rect width="1" height="1" fill="#966c4a" x="0" y="14" />
			<rect width="1" height="1" fill="#79553a" x="1" y="14" />
			<rect width="1" height="1" fill="#593d29" x="2" y="14" />
			<rect width="1" height="1" fill="#b9855c" x="3" y="14" />
			<rect width="1" height="1" fill="#79553a" x="4" y="14" />
			<rect width="1" height="1" fill="#593d29" x="5" y="14" />
			<rect width="1" height="1" fill="#79553a" x="6" y="14" />
			<rect width="1" height="1" fill="#593d29" x="7" y="14" />
			<rect width="1" height="1" fill="#b9855c" x="8" y="14" />
			<rect width="1" height="1" fill="#b9855c" x="9" y="14" />
			<rect width="1" height="1" fill="#79553a" x="10" y="14" />
			<rect width="1" height="1" fill="#966c4a" x="11" y="14" />
			<rect width="1" height="1" fill="#79553a" x="12" y="14" />
			<rect width="1" height="1" fill="#79553a" x="13" y="14" />
			<rect width="1" height="1" fill="#966c4a" x="14" y="14" />
			<rect width="1" height="1" fill="#966c4a" x="15" y="14" />
			<rect width="1" height="1" fill="#966c4a" x="0" y="15" />
			<rect width="1" height="1" fill="#79553a" x="1" y="15" />
			<rect width="1" height="1" fill="#b9855c" x="2" y="15" />
			<rect width="1" height="1" fill="#966c4a" x="3" y="15" />
			<rect width="1" height="1" fill="#966c4a" x="4" y="15" />
			<rect width="1" height="1" fill="#79553a" x="5" y="15" />
			<rect width="1" height="1" fill="#878787" x="6" y="15" />
			<rect width="1" height="1" fill="#79553a" x="7" y="15" />
			<rect width="1" height="1" fill="#966c4a" x="8" y="15" />
			<rect width="1" height="1" fill="#966c4a" x="9" y="15" />
			<rect width="1" height="1" fill="#79553a" x="10" y="15" />
			<rect width="1" height="1" fill="#79553a" x="11" y="15" />
			<rect width="1" height="1" fill="#966c4a" x="12" y="15" />
			<rect width="1" height="1" fill="#966c4a" x="13" y="15" />
			<rect width="1" height="1" fill="#79553a" x="14" y="15" />
			<rect width="1" height="1" fill="#593d29" x="15" y="15" />
		</pattern>
		<pattern id="dirt" viewBox="0 0 16 16" x="-4" y="0" width="16" height="16"
			patternUnits="userSpaceOnUse">
			<rect width="1" height="1" fill="#b9855c" x="0" y="0" />
			<rect width="1" height="1" fill="#966c4a" x="1" y="0" />
			<rect width="1" height="1" fill="#966c4a" x="2" y="0" />
			<rect width="1" height="1" fill="#79553a" x="3" y="0" />
			<rect width="1" height="1" fill="#79553a" x="4" y="0" />
			<rect width="1" height="1" fill="#b9855c" x="5" y="0" />
			<rect width="1" height="1" fill="#966c4a" x="6" y="0" />
			<rect width="1" height="1" fill="#966c4a" x="7" y="0" />
			<rect width="1" height="1" fill="#79553a" x="8" y="0" />
			<rect width="1" height="1" fill="#79553a" x="9" y="0" />
			<rect width="1" height="1" fill="#593d29" x="10" y="0" />
			<rect width="1" height="1" fill="#79553a" x="11" y="0" />
			<rect width="1" height="1" fill="#79553a" x="12" y="0" />
			<rect width="1" height="1" fill="#b9855c" x="13" y="0" />
			<rect width="1" height="1" fill="#79553a" x="14" y="0" />
			<rect width="1" height="1" fill="#b9855c" x="15" y="0" />
			<rect width="1" height="1" fill="#79553a" x="0" y="1" />
			<rect width="1" height="1" fill="#966c4a" x="1" y="1" />
			<rect width="1" height="1" fill="#593d29" x="2" y="1" />
			<rect width="1" height="1" fill="#79553a" x="3" y="1" />
			<rect width="1" height="1" fill="#79553a" x="4" y="1" />
			<rect width="1" height="1" fill="#966c4a" x="5" y="1" />
			<rect width="1" height="1" fill="#878787" x="6" y="1" />
			<rect width="1" height="1" fill="#593d29" x="7" y="1" />
			<rect width="1" height="1" fill="#79553a" x="8" y="1" />
			<rect width="1" height="1" fill="#b9855c" x="9" y="1" />
			<rect width="1" height="1" fill="#966c4a" x="10" y="1" />
			<rect width="1" height="1" fill="#79553a" x="11" y="1" />
			<rect width="1" height="1" fill="#b9855c" x="12" y="1" />
			<rect width="1" height="1" fill="#966c4a" x="13" y="1" />
			<rect width="1" height="1" fill="#593d29" x="14" y="1" />
			<rect width="1" height="1" fill="#593d29" x="15" y="1" />
			<rect width="1" height="1" fill="#b9855c" x="0" y="2" />
			<rect width="1" height="1" fill="#79553a" x="1" y="2" />
			<rect width="1" height="1" fill="#79553a" x="2" y="2" />
			<rect width="1" height="1" fill="#593d29" x="3" y="2" />
			<rect width="1" height="1" fill="#b9855c" x="4" y="2" />
			<rect width="1" height="1" fill="#79553a" x="5" y="2" />
			<rect width="1" height="1" fill="#79553a" x="6" y="2" />
			<rect width="1" height="1" fill="#79553a" x="7" y="2" />
			<rect width="1" height="1" fill="#b9855c" x="8" y="2" />
			<rect width="1" height="1" fill="#79553a" x="9" y="2" />
			<rect width="1" height="1" fill="#79553a" x="10" y="2" />
			<rect width="1" height="1" fill="#79553a" x="11" y="2" />
			<rect width="1" height="1" fill="#593d29" x="12" y="2" />
			<rect width="1" height="1" fill="#593d29" x="13" y="2" />
			<rect width="1" height="1" fill="#b9855c" x="14" y="2" />
			<rect width="1" height="1" fill="#79553a" x="15" y="2" />
			<rect width="1" height="1" fill="#966c4a" x="0" y="3" />
			<rect width="1" height="1" fill="#6c6c6c" x="1" y="3" />
			<rect width="1" height="1" fill="#b9855c" x="2" y="3" />
			<rect width="1" height="1" fill="#79553a" x="3" y="3" />
			<rect width="1" height="1" fill="#966c4a" x="4" y="3" />
			<rect width="1" height="1" fill="#593d29" x="5" y="3" />
			<rect width="1" height="1" fill="#79553a" x="6" y="3" />
			<rect width="1" height="1" fill="#b9855c" x="7" y="3" />
			<rect width="1" height="1" fill="#966c4a" x="8" y="3" />
			<rect width="1" height="1" fill="#966c4a" x="9" y="3" />
			<rect width="1" height="1" fill="#79553a" x="10" y="3" />
			<rect width="1" height="1" fill="#966c4a" x="11" y="3" />
			<rect width="1" height="1" fill="#79553a" x="12" y="3" />
			<rect width="1" height="1" fill="#b9855c" x="13" y="3" />
			<rect width="1" height="1" fill="#966c4a" x="14" y="3" />
			<rect width="1" height="1" fill="#79553a" x="15" y="3" />
			<rect width="1" height="1" fill="#966c4a" x="0" y="4" />
			<rect width="1" height="1" fill="#79553a" x="1" y="4" />
			<rect width="1" height="1" fill="#966c4a" x="2" y="4" />
			<rect width="1" height="1" fill="#b9855c" x="3" y="4" />
			<rect width="1" height="1" fill="#593d29" x="4" y="4" />
			<rect width="1" height="1" fill="#966c4a" x="5" y="4" />
			<rect width="1" height="1" fill="#79553a" x="6" y="4" />
			<rect width="1" height="1" fill="#79553a" x="7" y="4" />
			<rect width="1" height="1" fill="#966c4a" x="8" y="4" />
			<rect width="1" height="1" fill="#593d29" x="9" y="4" />
			<rect width="1" height="1" fill="#79553a" x="10" y="4" />
			<rect width="1" height="1" fill="#6c6c6c" x="11" y="4" />
			<rect width="1" height="1" fill="#79553a" x="12" y="4" />
			<rect width="1" height="1" fill="#966c4a" x="13" y="4" />
			<rect width="1" height="1" fill="#593d29" x="14" y="4" />
			<rect width="1" height="1" fill="#79553a" x="15" y="4" />
			<rect width="1" height="1" fill="#79553a" x="0" y="5" />
			<rect width="1" height="1" fill="#593d29" x="1" y="5" />
			<rect width="1" height="1" fill="#966c4a" x="2" y="5" />
			<rect width="1" height="1" fill="#966c4a" x="3" y="5" />
			<rect width="1" height="1" fill="#79553a" x="4" y="5" />
			<rect width="1" height="1" fill="#966c4a" x="5" y="5" />
			<rect width="1" height="1" fill="#593d29" x="6" y="5" />
			<rect width="1" height="1" fill="#593d29" x="7" y="5" />
			<rect width="1" height="1" fill="#593d29" x="8" y="5" />
			<rect width="1" height="1" fill="#79553a" x="9" y="5" />
			<rect width="1" height="1" fill="#79553a" x="10" y="5" />
			<rect width="1" height="1" fill="#593d29" x="11" y="5" />
			<rect width="1" height="1" fill="#79553a" x="12" y="5" />
			<rect width="1" height="1" fill="#79553a" x="13" y="5" />
			<rect width="1" height="1" fill="#79553a" x="14" y="5" />
			<rect width="1" height="1" fill="#b9855c" x="15" y="5" />
			<rect width="1" height="1" fill="#b9855c" x="0" y="6" />
			<rect width="1" height="1" fill="#79553a" x="1" y="6" />
			<rect width="1" height="1" fill="#79553a" x="2" y="6" />
			<rect width="1" height="1" fill="#79553a" x="3" y="6" />
			<rect width="1" height="1" fill="#878787" x="4" y="6" />
			<rect width="1" height="1" fill="#79553a" x="5" y="6" />
			<rect width="1" height="1" fill="#79553a" x="6" y="6" />
			<rect width="1" height="1" fill="#b9855c" x="7" y="6" />
			<rect width="1" height="1" fill="#b9855c" x="8" y="6" />
			<rect width="1" height="1" fill="#79553a" x="9" y="6" />
			<rect width="1" height="1" fill="#b9855c" x="10" y="6" />
			<rect width="1" height="1" fill="#b9855c" x="11" y="6" />
			<rect width="1" height="1" fill="#79553a" x="12" y="6" />
			<rect width="1" height="1" fill="#966c4a" x="13" y="6" />
			<rect width="1" height="1" fill="#79553a" x="14" y="6" />
			<rect width="1" height="1" fill="#966c4a" x="15" y="6" />
			<rect width="1" height="1" fill="#79553a" x="0" y="7" />
			<rect width="1" height="1" fill="#79553a" x="1" y="7" />
			<rect width="1" height="1" fill="#b9855c" x="2" y="7" />
			<rect width="1" height="1" fill="#b9855c" x="3" y="7" />
			<rect width="1" height="1" fill="#966c4a" x="4" y="7" />
			<rect width="1" height="1" fill="#966c4a" x="5" y="7" />
			<rect width="1" height="1" fill="#79553a" x="6" y="7" />
			<rect width="1" height="1" fill="#79553a" x="7" y="7" />
			<rect width="1" height="1" fill="#966c4a" x="8" y="7" />
			<rect width="1" height="1" fill="#593d29" x="9" y="7" />
			<rect width="1" height="1" fill="#966c4a" x="10" y="7" />
			<rect width="1" height="1" fill="#966c4a" x="11" y="7" />
			<rect width="1" height="1" fill="#79553a" x="12" y="7" />
			<rect width="1" height="1" fill="#79553a" x="13" y="7" />
			<rect width="1" height="1" fill="#966c4a" x="14" y="7" />
			<rect width="1" height="1" fill="#966c4a" x="15" y="7" />
			<rect width="1" height="1" fill="#966c4a" x="0" y="8" />
			<rect width="1" height="1" fill="#79553a" x="1" y="8" />
			<rect width="1" height="1" fill="#79553a" x="2" y="8" />
			<rect width="1" height="1" fill="#966c4a" x="3" y="8" />
			<rect width="1" height="1" fill="#79553a" x="4" y="8" />
			<rect width="1" height="1" fill="#966c4a" x="5" y="8" />
			<rect width="1" height="1" fill="#79553a" x="6" y="8" />
			<rect width="1" height="1" fill="#593d29" x="7" y="8" />
			<rect width="1" height="1" fill="#79553a" x="8" y="8" />
			<rect width="1" height="1" fill="#966c4a" x="9" y="8" />
			<rect width="1" height="1" fill="#966c4a" x="10" y="8" />
			<rect width="1" height="1" fill="#79553a" x="11" y="8" />
			<rect width="1" height="1" fill="#79553a" x="12" y="8" />
			<rect width="1" height="1" fill="#79553a" x="13" y="8" />
			<rect width="1" height="1" fill="#593d29" x="14" y="8" />
			<rect width="1" height="1" fill="#79553a" x="15" y="8" />
			<rect width="1" height="1" fill="#79553a" x="0" y="9" />
			<rect width="1" height="1" fill="#966c4a" x="1" y="9" />
			<rect width="1" height="1" fill="#593d29" x="2" y="9" />
			<rect width="1" height="1" fill="#79553a" x="3" y="9" />
			<rect width="1" height="1" fill="#79553a" x="4" y="9" />
			<rect width="1" height="1" fill="#593d29" x="5" y="9" />
			<rect width="1" height="1" fill="#593d29" x="6" y="9" />
			<rect width="1" height="1" fill="#79553a" x="7" y="9" />
			<rect width="1" height="1" fill="#79553a" x="8" y="9" />
			<rect width="1" height="1" fill="#79553a" x="9" y="9" />
			<rect width="1" height="1" fill="#79553a" x="10" y="9" />
			<rect width="1" height="1" fill="#79553a" x="11" y="9" />
			<rect width="1" height="1" fill="#b9855c" x="12" y="9" />
			<rect width="1" height="1" fill="#b9855c" x="13" y="9" />
			<rect width="1" height="1" fill="#79553a" x="14" y="9" />
			<rect width="1" height="1" fill="#966c4a" x="15" y="9" />
			<rect width="1" height="1" fill="#79553a" x="0" y="10" />
			<rect width="1" height="1" fill="#966c4a" x="1" y="10" />
			<rect width="1" height="1" fill="#79553a" x="2" y="10" />
			<rect width="1" height="1" fill="#b9855c" x="3" y="10" />
			<rect width="1" height="1" fill="#b9855c" x="4" y="10" />
			<rect width="1" height="1" fill="#79553a" x="5" y="10" />
			<rect width="1" height="1" fill="#b9855c" x="6" y="10" />
			<rect width="1" height="1" fill="#966c4a" x="7" y="10" />
			<rect width="1" height="1" fill="#593d29" x="8" y="10" />
			<rect width="1" height="1" fill="#b9855c" x="9" y="10" />
			<rect width="1" height="1" fill="#b9855c" x="10" y="10" />
			<rect width="1" height="1" fill="#593d29" x="11" y="10" />
			<rect width="1" height="1" fill="#966c4a" x="12" y="10" />
			<rect width="1" height="1" fill="#966c4a" x="13" y="10" />
			<rect width="1" height="1" fill="#878787" x="14" y="10" />
			<rect width="1" height="1" fill="#79553a" x="15" y="10" />
			<rect width="1" height="1" fill="#966c4a" x="0" y="11" />
			<rect width="1" height="1" fill="#79553a" x="1" y="11" />
			<rect width="1" height="1" fill="#79553a" x="2" y="11" />
			<rect width="1" height="1" fill="#966c4a" x="3" y="11" />
			<rect width="1" height="1" fill="#966c4a" x="4" y="11" />
			<rect width="1" height="1" fill="#b9855c" x="5" y="11" />
			<rect width="1" height="1" fill="#79553a" x="6" y="11" />
			<rect width="1" height="1" fill="#966c4a" x="7" y="11" />
			<rect width="1" height="1" fill="#6c6c6c" x="8" y="11" />
			<rect width="1" height="1" fill="#966c4a" x="9" y="11" />
			<rect width="1" height="1" fill="#966c4a" x="10" y="11" />
			<rect width="1" height="1" fill="#79553a" x="11" y="11" />
			<rect width="1" height="1" fill="#593d29" x="12" y="11" />
			<rect width="1" height="1" fill="#966c4a" x="13" y="11" />
			<rect width="1" height="1" fill="#79553a" x="14" y="11" />
			<rect width="1" height="1" fill="#593d29" x="15" y="11" />
			<rect width="1" height="1" fill="#79553a" x="0" y="12" />
			<rect width="1" height="1" fill="#593d29" x="1" y="12" />
			<rect width="1" height="1" fill="#966c4a" x="2" y="12" />
			<rect width="1" height="1" fill="#79553a" x="3" y="12" />
			<rect width="1" height="1" fill="#966c4a" x="4" y="12" />
			<rect width="1" height="1" fill="#966c4a" x="5" y="12" />
			<rect width="1" height="1" fill="#b9855c" x="6" y="12" />
			<rect width="1" height="1" fill="#79553a" x="7" y="12" />
			<rect width="1" height="1" fill="#79553a" x="8" y="12" />
			<rect width="1" height="1" fill="#79553a" x="9" y="12" />
			<rect width="1" height="1" fill="#79553a" x="10" y="12" />
			<rect width="1" height="1" fill="#79553a" x="11" y="12" />
			<rect width="1" height="1" fill="#79553a" x="12" y="12" />
			<rect width="1" height="1" fill="#79553a" x="13" y="12" />
			<rect width="1" height="1" fill="#b9855c" x="14" y="12" />
			<rect width="1" height="1" fill="#b9855c" x="15" y="12" />
			<rect width="1" height="1" fill="#79553a" x="0" y="13" />
			<rect width="1" height="1" fill="#966c4a" x="1" y="13" />
			<rect width="1" height="1" fill="#79553a" x="2" y="13" />
			<rect width="1" height="1" fill="#79553a" x="3" y="13" />
			<rect width="1" height="1" fill="#745844" x="4" y="13" />
			<rect width="1" height="1" fill="#79553a" x="5" y="13" />
			<rect width="1" height="1" fill="#966c4a" x="6" y="13" />
			<rect width="1" height="1" fill="#966c4a" x="7" y="13" />
			<rect width="1" height="1" fill="#79553a" x="8" y="13" />
			<rect width="1" height="1" fill="#593d29" x="9" y="13" />
			<rect width="1" height="1" fill="#b9855c" x="10" y="13" />
			<rect width="1" height="1" fill="#593d29" x="11" y="13" />
			<rect width="1" height="1" fill="#79553a" x="12" y="13" />
			<rect width="1" height="1" fill="#b9855c" x="13" y="13" />
			<rect width="1" height="1" fill="#966c4a" x="14" y="13" />
			<rect width="1" height="1" fill="#966c4a" x="15" y="13" />
			<rect width="1" height="1" fill="#966c4a" x="0" y="14" />
			<rect width="1" height="1" fill="#79553a" x="1" y="14" />
			<rect width="1" height="1" fill="#593d29" x="2" y="14" />
			<rect width="1" height="1" fill="#b9855c" x="3" y="14" />
			<rect width="1" height="1" fill="#79553a" x="4" y="14" />
			<rect width="1" height="1" fill="#593d29" x="5" y="14" />
			<rect width="1" height="1" fill="#79553a" x="6" y="14" />
			<rect width="1" height="1" fill="#593d29" x="7" y="14" />
			<rect width="1" height="1" fill="#b9855c" x="8" y="14" />
			<rect width="1" height="1" fill="#b9855c" x="9" y="14" />
			<rect width="1" height="1" fill="#79553a" x="10" y="14" />
			<rect width="1" height="1" fill="#966c4a" x="11" y="14" />
			<rect width="1" height="1" fill="#79553a" x="12" y="14" />
			<rect width="1" height="1" fill="#79553a" x="13" y="14" />
			<rect width="1" height="1" fill="#966c4a" x="14" y="14" />
			<rect width="1" height="1" fill="#966c4a" x="15" y="14" />
			<rect width="1" height="1" fill="#966c4a" x="0" y="15" />
			<rect width="1" height="1" fill="#79553a" x="1" y="15" />
			<rect width="1" height="1" fill="#b9855c" x="2" y="15" />
			<rect width="1" height="1" fill="#966c4a" x="3" y="15" />
			<rect width="1" height="1" fill="#966c4a" x="4" y="15" />
			<rect width="1" height="1" fill="#79553a" x="5" y="15" />
			<rect width="1" height="1" fill="#878787" x="6" y="15" />
			<rect width="1" height="1" fill="#79553a" x="7" y="15" />
			<rect width="1" height="1" fill="#966c4a" x="8" y="15" />
			<rect width="1" height="1" fill="#966c4a" x="9" y="15" />
			<rect width="1" height="1" fill="#79553a" x="10" y="15" />
			<rect width="1" height="1" fill="#79553a" x="11" y="15" />
			<rect width="1" height="1" fill="#966c4a" x="12" y="15" />
			<rect width="1" height="1" fill="#966c4a" x="13" y="15" />
			<rect width="1" height="1" fill="#79553a" x="14" y="15" />
			<rect width="1" height="1" fill="#593d29" x="15" y="15" />
		</pattern>
		<pattern id="endstone" viewBox="0 0 16 16" x="8" y="0" width="16" height="16"
			patternUnits="userSpaceOnUse">
			<rect width="1" height="1" fill="#d1d6ae" x="0" y="0" />
			<rect width="1" height="1" fill="#c6c99f" x="1" y="0" />
			<rect width="1" height="1" fill="#c7cba1" x="2" y="0" />
			<rect width="1" height="1" fill="#d6dab2" x="3" y="0" />
			<rect width="1" height="1" fill="#e4e8c0" x="4" y="0" />
			<rect width="1" height="1" fill="#e0e5bc" x="5" y="0" />
			<rect width="1" height="1" fill="#d0d3aa" x="6" y="0" />
			<rect width="1" height="1" fill="#d6dbb2" x="7" y="0" />
			<rect width="1" height="1" fill="#dee0ba" x="8" y="0" />
			<rect width="1" height="1" fill="#b3af8f" x="9" y="0" />
			<rect width="1" height="1" fill="#b9b592" x="10" y="0" />
			<rect width="1" height="1" fill="#c6c99f" x="11" y="0" />
			<rect width="1" height="1" fill="#cacda4" x="12" y="0" />
			<rect width="1" height="1" fill="#e0e3bc" x="13" y="0" />
			<rect width="1" height="1" fill="#c6c5a0" x="14" y="0" />
			<rect width="1" height="1" fill="#c7c9a0" x="15" y="0" />
			<rect width="1" height="1" fill="#c9cda3" x="0" y="1" />
			<rect width="1" height="1" fill="#cfd3a9" x="1" y="1" />
			<rect width="1" height="1" fill="#d6dbb3" x="2" y="1" />
			<rect width="1" height="1" fill="#e2e7be" x="3" y="1" />
			<rect width="1" height="1" fill="#b9b592" x="4" y="1" />
			<rect width="1" height="1" fill="#c9cca3" x="5" y="1" />
			<rect width="1" height="1" fill="#dde1b9" x="6" y="1" />
			<rect width="1" height="1" fill="#e6eac2" x="7" y="1" />
			<rect width="1" height="1" fill="#c1bf9a" x="8" y="1" />
			<rect width="1" height="1" fill="#bebd97" x="9" y="1" />
			<rect width="1" height="1" fill="#c9cca3" x="10" y="1" />
			<rect width="1" height="1" fill="#d7dcb4" x="11" y="1" />
			<rect width="1" height="1" fill="#cacda4" x="12" y="1" />
			<rect width="1" height="1" fill="#d6dab2" x="13" y="1" />
			<rect width="1" height="1" fill="#e2e7bf" x="14" y="1" />
			<rect width="1" height="1" fill="#dadfb7" x="15" y="1" />
			<rect width="1" height="1" fill="#d4d9b0" x="0" y="2" />
			<rect width="1" height="1" fill="#e4e8c0" x="1" y="2" />
			<rect width="1" height="1" fill="#e5eac2" x="2" y="2" />
			<rect width="1" height="1" fill="#d0d3aa" x="3" y="2" />
			<rect width="1" height="1" fill="#b3af8f" x="4" y="2" />
			<rect width="1" height="1" fill="#bebd97" x="5" y="2" />
			<rect width="1" height="1" fill="#c9cca3" x="6" y="2" />
			<rect width="1" height="1" fill="#d7dcb4" x="7" y="2" />
			<rect width="1" height="1" fill="#dde0b9" x="8" y="2" />
			<rect width="1" height="1" fill="#c9cca3" x="9" y="2" />
			<rect width="1" height="1" fill="#dde1b9" x="10" y="2" />
			<rect width="1" height="1" fill="#e6eac2" x="11" y="2" />
			<rect width="1" height="1" fill="#d1d5ad" x="12" y="2" />
			<rect width="1" height="1" fill="#cccfa6" x="13" y="2" />
			<rect width="1" height="1" fill="#d6dab2" x="14" y="2" />
			<rect width="1" height="1" fill="#e4e9c1" x="15" y="2" />
			<rect width="1" height="1" fill="#b6b393" x="0" y="3" />
			<rect width="1" height="1" fill="#c1bf9a" x="1" y="3" />
			<rect width="1" height="1" fill="#c8caa2" x="2" y="3" />
			<rect width="1" height="1" fill="#e2e7be" x="3" y="3" />
			<rect width="1" height="1" fill="#c1c29b" x="4" y="3" />
			<rect width="1" height="1" fill="#b3af8f" x="5" y="3" />
			<rect width="1" height="1" fill="#b9b592" x="6" y="3" />
			<rect width="1" height="1" fill="#c6c99f" x="7" y="3" />
			<rect width="1" height="1" fill="#d9deb6" x="8" y="3" />
			<rect width="1" height="1" fill="#dee2ba" x="9" y="3" />
			<rect width="1" height="1" fill="#c6c5a0" x="10" y="3" />
			<rect width="1" height="1" fill="#bfbc98" x="11" y="3" />
			<rect width="1" height="1" fill="#eef1cc" x="12" y="3" />
			<rect width="1" height="1" fill="#e6ebc2" x="13" y="3" />
			<rect width="1" height="1" fill="#e7ecc4" x="14" y="3" />
			<rect width="1" height="1" fill="#c4c29d" x="15" y="3" />
			<rect width="1" height="1" fill="#bcb994" x="0" y="4" />
			<rect width="1" height="1" fill="#c5c79e" x="1" y="4" />
			<rect width="1" height="1" fill="#c7caa1" x="2" y="4" />
			<rect width="1" height="1" fill="#edf0ca" x="3" y="4" />
			<rect width="1" height="1" fill="#e7ecc4" x="4" y="4" />
			<rect width="1" height="1" fill="#cccfa6" x="5" y="4" />
			<rect width="1" height="1" fill="#d1d6ad" x="6" y="4" />
			<rect width="1" height="1" fill="#c9cda3" x="7" y="4" />
			<rect width="1" height="1" fill="#e4e8c0" x="8" y="4" />
			<rect width="1" height="1" fill="#b8b491" x="9" y="4" />
			<rect width="1" height="1" fill="#b4b090" x="10" y="4" />
			<rect width="1" height="1" fill="#c2c49c" x="11" y="4" />
			<rect width="1" height="1" fill="#cdd0a7" x="12" y="4" />
			<rect width="1" height="1" fill="#e6e8c3" x="13" y="4" />
			<rect width="1" height="1" fill="#bdbb9a" x="14" y="4" />
			<rect width="1" height="1" fill="#b2af90" x="15" y="4" />
			<rect width="1" height="1" fill="#c5c79e" x="0" y="5" />
			<rect width="1" height="1" fill="#c3c29d" x="1" y="5" />
			<rect width="1" height="1" fill="#d4d7b0" x="2" y="5" />
			<rect width="1" height="1" fill="#e2e7be" x="3" y="5" />
			<rect width="1" height="1" fill="#e7e9c4" x="4" y="5" />
			<rect width="1" height="1" fill="#dfe3bb" x="5" y="5" />
			<rect width="1" height="1" fill="#d1d5ab" x="6" y="5" />
			<rect width="1" height="1" fill="#d9ddb5" x="7" y="5" />
			<rect width="1" height="1" fill="#e5e9c1" x="8" y="5" />
			<rect width="1" height="1" fill="#c3c19c" x="9" y="5" />
			<rect width="1" height="1" fill="#c5c79e" x="10" y="5" />
			<rect width="1" height="1" fill="#bfbd98" x="11" y="5" />
			<rect width="1" height="1" fill="#dbe0b8" x="12" y="5" />
			<rect width="1" height="1" fill="#e1e5bd" x="13" y="5" />
			<rect width="1" height="1" fill="#c4c39d" x="14" y="5" />
			<rect width="1" height="1" fill="#c7caa0" x="15" y="5" />
			<rect width="1" height="1" fill="#c7caa1" x="0" y="6" />
			<rect width="1" height="1" fill="#d4d7b0" x="1" y="6" />
			<rect width="1" height="1" fill="#e2e6be" x="2" y="6" />
			<rect width="1" height="1" fill="#d0d3aa" x="3" y="6" />
			<rect width="1" height="1" fill="#c5c39e" x="4" y="6" />
			<rect width="1" height="1" fill="#d1d5ab" x="5" y="6" />
			<rect width="1" height="1" fill="#dfe3bb" x="6" y="6" />
			<rect width="1" height="1" fill="#ecf0ca" x="7" y="6" />
			<rect width="1" height="1" fill="#e9eec6" x="8" y="6" />
			<rect width="1" height="1" fill="#dcdfb7" x="9" y="6" />
			<rect width="1" height="1" fill="#cbcea4" x="10" y="6" />
			<rect width="1" height="1" fill="#cfd2aa" x="11" y="6" />
			<rect width="1" height="1" fill="#e6ebc3" x="12" y="6" />
			<rect width="1" height="1" fill="#e3e7bf" x="13" y="6" />
			<rect width="1" height="1" fill="#cbcda4" x="14" y="6" />
			<rect width="1" height="1" fill="#d0d4ac" x="15" y="6" />
			<rect width="1" height="1" fill="#e6eac2" x="0" y="7" />
			<rect width="1" height="1" fill="#dee2bb" x="1" y="7" />
			<rect width="1" height="1" fill="#c0bf9e" x="2" y="7" />
			<rect width="1" height="1" fill="#bab793" x="3" y="7" />
			<rect width="1" height="1" fill="#b9b591" x="4" y="7" />
			<rect width="1" height="1" fill="#bdbc96" x="5" y="7" />
			<rect width="1" height="1" fill="#c7caa1" x="6" y="7" />
			<rect width="1" height="1" fill="#e7ecc4" x="7" y="7" />
			<rect width="1" height="1" fill="#eff2cc" x="8" y="7" />
			<rect width="1" height="1" fill="#dadfb7" x="9" y="7" />
			<rect width="1" height="1" fill="#e3e8bf" x="10" y="7" />
			<rect width="1" height="1" fill="#cccfa5" x="11" y="7" />
			<rect width="1" height="1" fill="#b8b595" x="12" y="7" />
			<rect width="1" height="1" fill="#c6c5a0" x="13" y="7" />
			<rect width="1" height="1" fill="#dee2ba" x="14" y="7" />
			<rect width="1" height="1" fill="#cccfa5" x="15" y="7" />
			<rect width="1" height="1" fill="#edf0ca" x="0" y="8" />
			<rect width="1" height="1" fill="#cacda3" x="1" y="8" />
			<rect width="1" height="1" fill="#c8cca2" x="2" y="8" />
			<rect width="1" height="1" fill="#b4b191" x="3" y="8" />
			<rect width="1" height="1" fill="#bcba95" x="4" y="8" />
			<rect width="1" height="1" fill="#cbcea5" x="5" y="8" />
			<rect width="1" height="1" fill="#d4d9b1" x="6" y="8" />
			<rect width="1" height="1" fill="#c6c8a0" x="7" y="8" />
			<rect width="1" height="1" fill="#b5b292" x="8" y="8" />
			<rect width="1" height="1" fill="#cfd2ab" x="9" y="8" />
			<rect width="1" height="1" fill="#c3c19c" x="10" y="8" />
			<rect width="1" height="1" fill="#b4b191" x="11" y="8" />
			<rect width="1" height="1" fill="#c5c79d" x="12" y="8" />
			<rect width="1" height="1" fill="#c8cca2" x="13" y="8" />
			<rect width="1" height="1" fill="#d0d5ac" x="14" y="8" />
			<rect width="1" height="1" fill="#e5eac2" x="15" y="8" />
			<rect width="1" height="1" fill="#e3e7bf" x="0" y="9" />
			<rect width="1" height="1" fill="#dcdfb9" x="1" y="9" />
			<rect width="1" height="1" fill="#d2d6af" x="2" y="9" />
			<rect width="1" height="1" fill="#c4c29d" x="3" y="9" />
			<rect width="1" height="1" fill="#cacda4" x="4" y="9" />
			<rect width="1" height="1" fill="#d6dbb3" x="5" y="9" />
			<rect width="1" height="1" fill="#e5eac2" x="6" y="9" />
			<rect width="1" height="1" fill="#bbb998" x="7" y="9" />
			<rect width="1" height="1" fill="#bdbb95" x="8" y="9" />
			<rect width="1" height="1" fill="#cccfa6" x="9" y="9" />
			<rect width="1" height="1" fill="#e0e4bc" x="10" y="9" />
			<rect width="1" height="1" fill="#ccd0a6" x="11" y="9" />
			<rect width="1" height="1" fill="#bdbb95" x="12" y="9" />
			<rect width="1" height="1" fill="#c6caa0" x="13" y="9" />
			<rect width="1" height="1" fill="#c8cba2" x="14" y="9" />
			<rect width="1" height="1" fill="#d7dcb3" x="15" y="9" />
			<rect width="1" height="1" fill="#cacda5" x="0" y="10" />
			<rect width="1" height="1" fill="#bbb998" x="1" y="10" />
			<rect width="1" height="1" fill="#bdbb97" x="2" y="10" />
			<rect width="1" height="1" fill="#dcdfb8" x="3" y="10" />
			<rect width="1" height="1" fill="#d1d5ad" x="4" y="10" />
			<rect width="1" height="1" fill="#cfd3a9" x="5" y="10" />
			<rect width="1" height="1" fill="#e4e8c0" x="6" y="10" />
			<rect width="1" height="1" fill="#c7c9a1" x="7" y="10" />
			<rect width="1" height="1" fill="#c4c69d" x="8" y="10" />
			<rect width="1" height="1" fill="#c9cda3" x="9" y="10" />
			<rect width="1" height="1" fill="#d5dab1" x="10" y="10" />
			<rect width="1" height="1" fill="#d3d7af" x="11" y="10" />
			<rect width="1" height="1" fill="#c4c69d" x="12" y="10" />
			<rect width="1" height="1" fill="#c8cba2" x="13" y="10" />
			<rect width="1" height="1" fill="#d0d4ab" x="14" y="10" />
			<rect width="1" height="1" fill="#e3e8c0" x="15" y="10" />
			<rect width="1" height="1" fill="#b5b292" x="0" y="11" />
			<rect width="1" height="1" fill="#c3c69d" x="1" y="11" />
			<rect width="1" height="1" fill="#c4c69d" x="2" y="11" />
			<rect width="1" height="1" fill="#cacda3" x="3" y="11" />
			<rect width="1" height="1" fill="#e7ecc4" x="4" y="11" />
			<rect width="1" height="1" fill="#e8ecc5" x="5" y="11" />
			<rect width="1" height="1" fill="#eff3cd" x="6" y="11" />
			<rect width="1" height="1" fill="#d7dcb4" x="7" y="11" />
			<rect width="1" height="1" fill="#d5dab2" x="8" y="11" />
			<rect width="1" height="1" fill="#dcdfb9" x="9" y="11" />
			<rect width="1" height="1" fill="#bebc9b" x="10" y="11" />
			<rect width="1" height="1" fill="#bcb995" x="11" y="11" />
			<rect width="1" height="1" fill="#d3d8b0" x="12" y="11" />
			<rect width="1" height="1" fill="#d7dcb3" x="13" y="11" />
			<rect width="1" height="1" fill="#e3e8c0" x="14" y="11" />
			<rect width="1" height="1" fill="#ced2a8" x="15" y="11" />
			<rect width="1" height="1" fill="#cacda4" x="0" y="12" />
			<rect width="1" height="1" fill="#ced1a8" x="1" y="12" />
			<rect width="1" height="1" fill="#e1e6be" x="2" y="12" />
			<rect width="1" height="1" fill="#dadfb7" x="3" y="12" />
			<rect width="1" height="1" fill="#e6ebc3" x="4" y="12" />
			<rect width="1" height="1" fill="#c2c39b" x="5" y="12" />
			<rect width="1" height="1" fill="#bbb893" x="6" y="12" />
			<rect width="1" height="1" fill="#dee0ba" x="7" y="12" />
			<rect width="1" height="1" fill="#dfe3bc" x="8" y="12" />
			<rect width="1" height="1" fill="#b6b392" x="9" y="12" />
			<rect width="1" height="1" fill="#b9b692" x="10" y="12" />
			<rect width="1" height="1" fill="#c6c99f" x="11" y="12" />
			<rect width="1" height="1" fill="#d2d7ae" x="12" y="12" />
			<rect width="1" height="1" fill="#cdd0a7" x="13" y="12" />
			<rect width="1" height="1" fill="#d5dab1" x="14" y="12" />
			<rect width="1" height="1" fill="#d9ddb6" x="15" y="12" />
			<rect width="1" height="1" fill="#e0e3bc" x="0" y="13" />
			<rect width="1" height="1" fill="#d9deb6" x="1" y="13" />
			<rect width="1" height="1" fill="#d9deb6" x="2" y="13" />
			<rect width="1" height="1" fill="#e9eec6" x="3" y="13" />
			<rect width="1" height="1" fill="#e4e6c1" x="4" y="13" />
			<rect width="1" height="1" fill="#b7b390" x="5" y="13" />
			<rect width="1" height="1" fill="#b7b390" x="6" y="13" />
			<rect width="1" height="1" fill="#b4b191" x="7" y="13" />
			<rect width="1" height="1" fill="#c8cba1" x="8" y="13" />
			<rect width="1" height="1" fill="#d3d7af" x="9" y="13" />
			<rect width="1" height="1" fill="#cbcea5" x="10" y="13" />
			<rect width="1" height="1" fill="#d7dcb3" x="11" y="13" />
			<rect width="1" height="1" fill="#d0d3aa" x="12" y="13" />
			<rect width="1" height="1" fill="#e5eac2" x="13" y="13" />
			<rect width="1" height="1" fill="#e4e8c0" x="14" y="13" />
			<rect width="1" height="1" fill="#e6e8c4" x="15" y="13" />
			<rect width="1" height="1" fill="#c6c5a0" x="0" y="14" />
			<rect width="1" height="1" fill="#e6ebc3" x="1" y="14" />
			<rect width="1" height="1" fill="#e6ebc3" x="2" y="14" />
			<rect width="1" height="1" fill="#f0f3ce" x="3" y="14" />
			<rect width="1" height="1" fill="#cbcda5" x="4" y="14" />
			<rect width="1" height="1" fill="#b1ad8e" x="5" y="14" />
			<rect width="1" height="1" fill="#b1ad8e" x="6" y="14" />
			<rect width="1" height="1" fill="#c0c19a" x="7" y="14" />
			<rect width="1" height="1" fill="#c8cba1" x="8" y="14" />
			<rect width="1" height="1" fill="#d4d9b1" x="9" y="14" />
			<rect width="1" height="1" fill="#d3d7af" x="10" y="14" />
			<rect width="1" height="1" fill="#e3e8c0" x="11" y="14" />
			<rect width="1" height="1" fill="#e2e7be" x="12" y="14" />
			<rect width="1" height="1" fill="#d6dbb3" x="13" y="14" />
			<rect width="1" height="1" fill="#cfd3a9" x="14" y="14" />
			<rect width="1" height="1" fill="#bebd9c" x="15" y="14" />
			<rect width="1" height="1" fill="#c4c59d" x="0" y="15" />
			<rect width="1" height="1" fill="#c4c29d" x="1" y="15" />
			<rect width="1" height="1" fill="#d3d6af" x="2" y="15" />
			<rect width="1" height="1" fill="#e9edc6" x="3" y="15" />
			<rect width="1" height="1" fill="#c6c99f" x="4" y="15" />
			<rect width="1" height="1" fill="#c6c8a0" x="5" y="15" />
			<rect width="1" height="1" fill="#ced1aa" x="6" y="15" />
			<rect width="1" height="1" fill="#c7caa1" x="7" y="15" />
			<rect width="1" height="1" fill="#d2d6ae" x="8" y="15" />
			<rect width="1" height="1" fill="#c4c69e" x="9" y="15" />
			<rect width="1" height="1" fill="#b8b695" x="10" y="15" />
			<rect width="1" height="1" fill="#bebb97" x="11" y="15" />
			<rect width="1" height="1" fill="#dadfb7" x="12" y="15" />
			<rect width="1" height="1" fill="#dde1ba" x="13" y="15" />
			<rect width="1" height="1" fill="#bdbb9a" x="14" y="15" />
			<rect width="1" height="1" fill="#b7b391" x="15" y="15" />
		</pattern>
	</defs>

	<!-- O -->
	<rect x="20" y="64" width="24" height="8" fill="url(#grass)" />
	<rect x="12" y="72" width="8" height="40" fill="url(#dirt)" />
	<rect x="44" y="72" width="8" height="40" fill="url(#dirt)" />
	<rect x="20" y="112" width="24" height="8" fill="url(#dirt)" />

	<!-- P -->
	<rect x="60" y="64" width="32" height="8" fill="url(#grass)" />
	<rect x="60" y="72" width="8" height="48" fill="url(#dirt)" />
	<rect x="68" y="80" width="24" height="8" fill="url(#dirt)" />
	<rect x="92" y="72" width="8" height="8" fill="url(#dirt)" />

	<!-- T -->
	<rect x="108" y="64" width="40" height="8" fill="url(#grass)" />
	<rect x="124" y="72" width="8" height="48" fill="url(#dirt)" />

	<!-- I -->
	<rect x="156" y="64" width="24" height="8" fill="url(#grass)" />
	<rect x="164" y="72" width="8" height="40" fill="url(#dirt)" />
	<rect x="156" y="112" width="24" height="8" fill="url(#dirt)" />

	<!-- G -->
	<rect x="124" y="128" width="16" height="4" fill="url(#endstone)" />
	<rect x="120" y="132" width="4" height="20" fill="url(#endstone)" />
	<rect x="124" y="152" width="12" height="4" fill="url(#endstone)" />
	<rect x="128" y="136" width="12" height="4" fill="url(#endstone)" />
	<rect x="136" y="140" width="4" height="12" fill="url(#endstone)" />

	<!-- U -->
	<rect x="144" y="128" width="4" height="24" fill="url(#endstone)" />
	<rect x="148" y="152" width="12" height="4" fill="url(#endstone)" />
	<rect x="160" y="128" width="4" height="24" fill="url(#endstone)" />

	<!-- I -->
	<rect x="168" y="128" width="12" height="4" fill="url(#endstone)" />
	<rect x="172" y="132" width="4" height="20" fill="url(#endstone)" />
	<rect x="168" y="152" width="12" height="4" fill="url(#endstone)" />
</svg>
